<svg width="34" height="28" viewBox="0 0 34 28" fill="none" xmlns="http://www.w3.org/2000/svg">
<path d="M3.77778 0.875C1.6941 0.875 0 2.55664 0 4.625V23.375C0 25.4434 1.6941 27.125 3.77778 27.125H30.2222C32.3059 27.125 34 25.4434 34 23.375V4.625C34 2.55664 32.3059 0.875 30.2222 0.875H3.77778ZM8.5 15.875H12.2778C14.8868 15.875 17 17.9727 17 20.5625C17 21.0781 16.575 21.5 16.0556 21.5H4.72222C4.20278 21.5 3.77778 21.0781 3.77778 20.5625C3.77778 17.9727 5.89097 15.875 8.5 15.875ZM6.61111 10.25C6.61111 9.25544 7.00913 8.30161 7.7176 7.59835C8.42607 6.89509 9.38696 6.5 10.3889 6.5C11.3908 6.5 12.3517 6.89509 13.0602 7.59835C13.7687 8.30161 14.1667 9.25544 14.1667 10.25C14.1667 11.2446 13.7687 12.1984 13.0602 12.9017C12.3517 13.6049 11.3908 14 10.3889 14C9.38696 14 8.42607 13.6049 7.7176 12.9017C7.00913 12.1984 6.61111 11.2446 6.61111 10.25ZM21.7222 8.375H29.2778C29.7972 8.375 30.2222 8.79687 30.2222 9.3125C30.2222 9.82813 29.7972 10.25 29.2778 10.25H21.7222C21.2028 10.25 20.7778 9.82813 20.7778 9.3125C20.7778 8.79687 21.2028 8.375 21.7222 8.375ZM21.7222 12.125H29.2778C29.7972 12.125 30.2222 12.5469 30.2222 13.0625C30.2222 13.5781 29.7972 14 29.2778 14H21.7222C21.2028 14 20.7778 13.5781 20.7778 13.0625C20.7778 12.5469 21.2028 12.125 21.7222 12.125ZM21.7222 15.875H29.2778C29.7972 15.875 30.2222 16.2969 30.2222 16.8125C30.2222 17.3281 29.7972 17.75 29.2778 17.75H21.7222C21.2028 17.75 20.7778 17.3281 20.7778 16.8125C20.7778 16.2969 21.2028 15.875 21.7222 15.875Z" fill="white"/>
</svg>
