<svg xmlns="http://www.w3.org/2000/svg" xmlns:xlink="http://www.w3.org/1999/xlink" version="1.1" x="0px" y="0px" viewBox="0 0 100 125" enable-background="new 0 0 100 100" xml:space="preserve"><path d="M56,29c-3.9,0-7.7,1.1-11,3.1c-3.2-2-7-3.1-11-3.1c-11.6,0-21,9.4-21,21c0,11.6,9.4,21,21,21c4,0,7.8-1.2,11-3.1  c3.3,2,7.1,3.1,11,3.1c11.6,0,21-9.4,21-21C77,38.4,67.6,29,56,29z M16,50c0-9.9,8.1-18,18-18s18,8.1,18,18c0,9.9-8.1,18-18,18  S16,59.9,16,50z M56,68c-2.9,0-5.8-0.7-8.4-2.1C52.1,62.1,55,56.4,55,50c0-6.4-2.9-12.1-7.4-15.9C50.2,32.7,53,32,56,32  c9.9,0,18,8.1,18,18C74,59.9,65.9,68,56,68z M88,50c0,0.8-0.7,1.5-1.5,1.5h-4c-0.8,0-1.5-0.7-1.5-1.5s0.7-1.5,1.5-1.5h4  C87.3,48.5,88,49.2,88,50z M78.6,70.5c0.601,0.6,0.601,1.5,0,2.1c-0.536,0.538-1.663,0.538-2.199,0L73.6,69.8  c-0.6-0.6-0.6-1.5,0-2.1c0.601-0.601,1.5-0.601,2.101,0L78.6,70.5z M57.5,76.5v4c0,0.8-0.7,1.5-1.5,1.5s-1.5-0.7-1.5-1.5v-4  c0-0.8,0.7-1.5,1.5-1.5S57.5,75.7,57.5,76.5z M54.5,23.5v-4c0-0.8,0.7-1.5,1.5-1.5s1.5,0.7,1.5,1.5v4c0,0.8-0.7,1.5-1.5,1.5  S54.5,24.3,54.5,23.5z M78.6,27.4c0.601,0.6,0.601,1.5,0,2.1l-2.8,2.8c-0.537,0.538-1.662,0.538-2.2,0c-0.6-0.6-0.6-1.5,0-2.1  l2.801-2.8C77.1,26.8,78,26.8,78.6,27.4z M32.5,36c-1.9,0-3.5,1.6-3.5,3.5s1.6,3.5,3.5,3.5s3.5-1.6,3.5-3.5S34.4,36,32.5,36z   M32.5,41c-0.8,0-1.5-0.7-1.5-1.5s0.7-1.5,1.5-1.5s1.5,0.7,1.5,1.5S33.3,41,32.5,41z M43,54c-2.2,0-4,1.8-4,4s1.8,4,4,4s4-1.8,4-4  S45.2,54,43,54z M43,60c-1.1,0-2-0.9-2-2s0.9-2,2-2s2,0.9,2,2S44.1,60,43,60z M25,48c-3.3,0-6,2.7-6,6s2.7,6,6,6s6-2.7,6-6  S28.3,48,25,48z M25,58c-2.2,0-4-1.8-4-4s1.8-4,4-4s4,1.8,4,4S27.2,58,25,58z"/><text x="0" y="115" fill="#000000" font-size="5px" font-weight="bold" font-family="'Helvetica Neue', Helvetica, Arial-Unicode, Arial, Sans-serif">Created by Setyo Ari Wibowo</text><text x="0" y="120" fill="#000000" font-size="5px" font-weight="bold" font-family="'Helvetica Neue', Helvetica, Arial-Unicode, Arial, Sans-serif">from the Noun Project</text></svg>