<svg width="20" height="27" viewBox="0 0 20 27" fill="none" xmlns="http://www.w3.org/2000/svg">
<path d="M16.159 2.35194C16.4487 1.62948 16.2326 0.785731 15.6384 0.321668C15.0442 -0.142394 14.234 -0.100207 13.679 0.41659L1.10762 12.2291C0.616545 12.6932 0.439759 13.4367 0.670562 14.0906C0.901366 14.7445 1.49065 15.1875 2.14378 15.1875H7.61922L3.84288 24.648C3.55315 25.3705 3.76922 26.2142 4.36342 26.6783C4.95761 27.1424 5.76788 27.1002 6.32279 26.5834L18.8942 14.7709C19.3853 14.3068 19.5621 13.5633 19.3313 12.9094C19.1005 12.2555 18.5161 11.8178 17.8581 11.8178H12.3826L16.159 2.35194Z" fill="white"/>
</svg>
