<svg width="29" height="29" viewBox="0 0 29 29" fill="none" xmlns="http://www.w3.org/2000/svg">
<path d="M10.4219 2.71875H18.5781C18.8273 2.71875 19.0312 2.92266 19.0312 3.17188V5.4375H9.96875V3.17188C9.96875 2.92266 10.1727 2.71875 10.4219 2.71875ZM7.25 3.17188V5.4375H3.625C1.62559 5.4375 0 7.06309 0 9.0625V14.5H10.875H18.125H29V9.0625C29 7.06309 27.3744 5.4375 25.375 5.4375H21.75V3.17188C21.75 1.42168 20.3283 0 18.5781 0H10.4219C8.67168 0 7.25 1.42168 7.25 3.17188ZM29 16.3125H18.125V18.125C18.125 19.1275 17.315 19.9375 16.3125 19.9375H12.6875C11.685 19.9375 10.875 19.1275 10.875 18.125V16.3125H0V23.5625C0 25.5619 1.62559 27.1875 3.625 27.1875H25.375C27.3744 27.1875 29 25.5619 29 23.5625V16.3125Z" fill="white"/>
</svg>
